<svg width="56" height="29" viewBox="0 0 56 29" fill="none" xmlns="http://www.w3.org/2000/svg">
<path d="M12.6319 7.448C12.6319 6.552 12.2799 5.77334 11.5759 5.112C10.8932 4.45067 9.92252 4.12 8.66386 4.12C7.59719 4.12 6.75452 4.344 6.13586 4.792C5.51719 5.21867 5.20786 5.80533 5.20786 6.552C5.20786 6.936 5.28252 7.288 5.43186 7.608C5.58119 7.90667 5.83719 8.184 6.19986 8.44C6.58386 8.67467 7.07452 8.888 7.67186 9.08C8.29052 9.272 9.06919 9.45334 10.0079 9.624C12.3545 10.0507 14.1465 10.7653 15.3839 11.768C16.6212 12.7707 17.2399 14.2533 17.2399 16.216V16.6C17.2399 17.6453 17.0479 18.5947 16.6639 19.448C16.3012 20.28 15.7679 20.9947 15.0639 21.592C14.3599 22.1893 13.5065 22.648 12.5039 22.968C11.5012 23.288 10.3705 23.448 9.11186 23.448C7.63986 23.448 6.33852 23.2453 5.20786 22.84C4.09852 22.4133 3.17052 21.8373 2.42386 21.112C1.67719 20.3653 1.11186 19.5013 0.727855 18.52C0.343855 17.5173 0.151855 16.4293 0.151855 15.256V14.296H4.37586V15.064C4.37586 16.408 4.75986 17.4853 5.52786 18.296C6.31719 19.0853 7.53319 19.48 9.17586 19.48C10.4559 19.48 11.4052 19.2027 12.0239 18.648C12.6425 18.0933 12.9519 17.432 12.9519 16.664C12.9519 16.3013 12.8879 15.96 12.7599 15.64C12.6319 15.2987 12.4079 15 12.0879 14.744C11.7679 14.4667 11.3305 14.2213 10.7759 14.008C10.2212 13.7947 9.51719 13.6133 8.66386 13.464C7.53319 13.272 6.49852 13.0267 5.55986 12.728C4.62119 12.408 3.79986 11.992 3.09586 11.48C2.41319 10.968 1.87986 10.328 1.49586 9.56C1.11186 8.792 0.919855 7.85333 0.919855 6.744V6.552C0.919855 5.63467 1.10119 4.792 1.46386 4.024C1.84786 3.23467 2.37052 2.552 3.03186 1.976C3.71452 1.4 4.52519 0.952001 5.46386 0.632C6.42386 0.312 7.49052 0.152 8.66386 0.152C9.98652 0.152 11.1599 0.344 12.1839 0.728001C13.2079 1.09067 14.0612 1.592 14.7439 2.232C15.4479 2.872 15.9705 3.608 16.3119 4.44C16.6745 5.272 16.8559 6.14667 16.8559 7.064V8.216H12.6319V7.448Z" fill="white"/>
<path d="M25.2816 23H21.0576V0.6H25.2816V9.784H26.2096L32.1296 0.6H36.8976V0.792002L29.9856 11.512V12.088L37.2816 22.808V23H32.3216L26.2096 13.816H25.2816V23Z" fill="white"/>
<path d="M39.9521 24.536H55.6321V28.184H39.9521V24.536Z" fill="#EF463F"/>
</svg>
