<svg width="43" height="44" viewBox="0 0 43 44" fill="none" xmlns="http://www.w3.org/2000/svg">
<path d="M21.5 43.7936C15.8513 43.7936 10.434 41.4975 6.43979 37.4104C2.44558 33.3233 0.20166 27.78 0.20166 22C0.20166 16.22 2.44558 10.6767 6.43979 6.58959C10.434 2.5025 15.8513 0.206394 21.5 0.206394C27.1486 0.206394 32.5659 2.5025 36.5601 6.58959C40.5543 10.6767 42.7982 16.22 42.7982 22C42.7982 27.78 40.5543 33.3233 36.5601 37.4104C32.5659 41.4975 27.1486 43.7936 21.5 43.7936Z" fill="#EF463F"/>
<path d="M11.7693 14C11.4215 14 11.1023 14.1097 10.8293 14.2923L20.7908 23.9477C21.227 24.371 21.7927 24.371 22.2283 23.9477L32.1708 14.2923C31.8979 14.1097 31.5787 14 31.2308 14H11.7692H11.7693ZM10.1107 15.2447C10.0432 15.4441 10 15.652 10 15.8766V28.4173C10 28.7985 10.1037 29.1495 10.2857 29.445L17.3258 22.2503L10.1104 15.2443L10.1107 15.2447ZM32.8896 15.2447L25.6926 22.2411L32.7143 29.445C32.8963 29.1493 33 28.7982 33 28.417V15.8763C33 15.6518 32.9568 15.4438 32.8893 15.2445L32.8896 15.2447ZM24.8359 23.0806L23.039 24.825C22.1834 25.6564 20.8355 25.6551 19.9796 24.825L18.1827 23.0901L11.2163 30.1996C11.3905 30.2602 11.5755 30.2939 11.7692 30.2939H31.2309C31.4246 30.2939 31.6095 30.2602 31.7838 30.1996L24.8358 23.0804L24.8359 23.0806Z" fill="white"/>
</svg>
