<svg width="47" height="47" viewBox="0 0 47 47" fill="none" xmlns="http://www.w3.org/2000/svg">
<g clip-path="url(#clip0_13_41)">
<path d="M23.4502 46.68C17.2892 46.68 11.3806 44.2325 7.02412 39.8761C2.66765 35.5196 0.220215 29.611 0.220215 23.45V23.45C0.220215 17.289 2.66765 11.3804 7.02412 7.02388C11.3806 2.66741 17.2892 0.219971 23.4502 0.219971V0.219971C29.6112 0.219971 35.5198 2.66741 39.8763 7.02388C44.2328 11.3804 46.6802 17.289 46.6802 23.45V23.45C46.6802 29.611 44.2328 35.5196 39.8763 39.8761C35.5198 44.2325 29.6112 46.68 23.4502 46.68V46.68Z" stroke="#141613" stroke-width="0.43" stroke-miterlimit="10"/>
<path d="M14.5885 16C14.2763 16 13.9897 16.0962 13.7446 16.2565L22.6882 24.7284C23.0799 25.0997 23.5878 25.0997 23.9789 24.7284L32.9056 16.2565C32.6605 16.0962 32.3739 16 32.0616 16H14.5884H14.5885ZM13.0994 17.0922C13.0388 17.2671 13 17.4495 13 17.6466V28.65C13 28.9845 13.0931 29.2925 13.2565 29.5518L19.5773 23.239L13.0991 17.0917L13.0994 17.0922ZM33.5509 17.0922L27.0892 23.2309L33.3935 29.5517C33.5569 29.2923 33.65 28.9842 33.65 28.6498V17.6463C33.65 17.4493 33.6112 17.2668 33.5506 17.0919L33.5509 17.0922ZM26.3201 23.9675L24.7068 25.4981C23.9385 26.2275 22.7284 26.2264 21.9599 25.4981L20.3467 23.9758L14.0921 30.2139C14.2485 30.2671 14.4145 30.2966 14.5885 30.2966H32.0616C32.2356 30.2966 32.4016 30.2671 32.558 30.2139L26.32 23.9673L26.3201 23.9675Z" fill="#141613"/>
</g>
<defs>
<clipPath id="clip0_13_41">
<rect width="46.9" height="46.9" fill="white"/>
</clipPath>
</defs>
</svg>
