<svg width="43" height="44" viewBox="0 0 43 44" fill="none" xmlns="http://www.w3.org/2000/svg">
<path d="M21.5 43.7936C15.8513 43.7936 10.434 41.4975 6.43979 37.4104C2.44558 33.3233 0.20166 27.78 0.20166 22C0.20166 16.22 2.44558 10.6767 6.43979 6.5896C10.434 2.5025 15.8513 0.206398 21.5 0.206398C27.1486 0.206398 32.5659 2.5025 36.5601 6.5896C40.5543 10.6767 42.7982 16.22 42.7982 22C42.7982 27.78 40.5543 33.3233 36.5601 37.4104C32.5659 41.4975 27.1486 43.7936 21.5 43.7936Z" fill="#EF463F"/>
<path d="M21.5457 8.4435C14.2006 8.4435 8.25146 14.531 8.25146 22.0469C8.25146 28.0664 12.0569 33.1507 17.3414 34.9531C18.0061 35.0722 18.2554 34.6641 18.2554 34.307C18.2554 33.9839 18.2388 32.9126 18.2388 31.7733C14.8986 32.4025 14.0345 30.9401 13.7686 30.1749C13.619 29.7838 12.9709 28.5765 12.4059 28.2535C11.9406 27.9984 11.2759 27.3692 12.3893 27.3522C13.4362 27.3352 14.184 28.3385 14.4333 28.7466C15.6298 30.8041 17.5408 30.226 18.3052 29.8689C18.4216 28.9846 18.7705 28.3895 19.1527 28.0494C16.1948 27.7093 13.1039 26.536 13.1039 21.3327C13.1039 19.8534 13.619 18.6291 14.4665 17.6768C14.3336 17.3367 13.8683 15.9424 14.5995 14.0719C14.5995 14.0719 15.7129 13.7148 18.2554 15.4663C19.3189 15.1602 20.4489 15.0071 21.5789 15.0071C22.709 15.0071 23.839 15.1602 24.9025 15.4663C27.445 13.6978 28.5584 14.0719 28.5584 14.0719C29.2896 15.9424 28.8243 17.3367 28.6914 17.6768C29.5389 18.6291 30.054 19.8364 30.054 21.3327C30.054 26.553 26.9465 27.7093 23.9885 28.0494C24.4704 28.4745 24.8859 29.2907 24.8859 30.566C24.8859 32.3855 24.8693 33.8479 24.8693 34.307C24.8693 34.6641 25.1185 35.0892 25.7833 34.9531C28.4224 34.0415 30.7157 32.3059 32.3404 29.9907C33.965 27.6754 34.8392 24.8972 34.84 22.0469C34.84 14.531 28.8908 8.4435 21.5457 8.4435Z" fill="white"/>
</svg>
