<svg width="47" height="47" viewBox="0 0 47 47" fill="none" xmlns="http://www.w3.org/2000/svg">
<g clip-path="url(#clip0_13_32)">
<path d="M23.4502 46.68C17.2892 46.68 11.3806 44.2325 7.02412 39.8761C2.66765 35.5196 0.220215 29.611 0.220215 23.45V23.45C0.220215 17.289 2.66765 11.3804 7.02412 7.02388C11.3806 2.66741 17.2892 0.219971 23.4502 0.219971V0.219971C29.6112 0.219971 35.5198 2.66741 39.8763 7.02388C44.2328 11.3804 46.6802 17.289 46.6802 23.45V23.45C46.6802 29.611 44.2328 35.5196 39.8763 39.8761C35.5198 44.2325 29.6112 46.68 23.4502 46.68V46.68Z" stroke="#141613" stroke-width="0.43" stroke-miterlimit="10"/>
<g clip-path="url(#clip1_13_32)">
<path d="M23.325 13C17.6204 13 13 17.6204 13 23.325C13 27.8938 15.9555 31.7528 20.0597 33.1208C20.576 33.2112 20.7696 32.9014 20.7696 32.6304C20.7696 32.3852 20.7567 31.5721 20.7567 30.7074C18.1625 31.1849 17.4914 30.075 17.2849 29.4942C17.1687 29.1973 16.6654 28.281 16.2266 28.0358C15.8652 27.8422 15.3489 27.3647 16.2137 27.3517C17.0267 27.3388 17.6075 28.1003 17.8011 28.4101C18.7304 29.9717 20.2146 29.5329 20.8083 29.2619C20.8986 28.5908 21.1697 28.139 21.4665 27.8809C19.1692 27.6228 16.7686 26.7322 16.7686 22.7829C16.7686 21.6601 17.1687 20.7308 17.8269 20.0081C17.7237 19.75 17.3623 18.6917 17.9302 17.272C17.9302 17.272 18.7949 17.0009 20.7696 18.3303C21.5956 18.098 22.4732 17.9818 23.3508 17.9818C24.2284 17.9818 25.1061 18.098 25.9321 18.3303C27.9067 16.988 28.7714 17.272 28.7714 17.272C29.3393 18.6917 28.9779 19.75 28.8747 20.0081C29.5329 20.7308 29.933 21.6472 29.933 22.7829C29.933 26.7452 27.5195 27.6228 25.2222 27.8809C25.5965 28.2036 25.9192 28.8231 25.9192 29.791C25.9192 31.172 25.9062 32.2819 25.9062 32.6304C25.9062 32.9014 26.0998 33.2241 26.6161 33.1208C28.6658 32.4289 30.4469 31.1116 31.7087 29.3543C32.9705 27.5971 33.6494 25.4883 33.65 23.325C33.65 17.6204 29.0296 13 23.325 13Z" fill="#141613"/>
</g>
</g>
<defs>
<clipPath id="clip0_13_32">
<rect width="46.9" height="46.9" fill="white"/>
</clipPath>
<clipPath id="clip1_13_32">
<rect width="20.65" height="20.65" fill="white" transform="translate(13 13)"/>
</clipPath>
</defs>
</svg>
