<svg width="43" height="44" viewBox="0 0 43 44" fill="none" xmlns="http://www.w3.org/2000/svg">
<path d="M21.5 43.7936C15.8513 43.7936 10.434 41.4975 6.43979 37.4104C2.44558 33.3233 0.20166 27.78 0.20166 22C0.20166 16.22 2.44558 10.6767 6.43979 6.5896C10.434 2.5025 15.8513 0.206398 21.5 0.206398C27.1486 0.206398 32.5659 2.5025 36.5601 6.5896C40.5543 10.6767 42.7982 16.22 42.7982 22C42.7982 27.78 40.5543 33.3233 36.5601 37.4104C32.5659 41.4975 27.1486 43.7936 21.5 43.7936Z" fill="#EF463F"/>
<path d="M16.3108 17.6751H12.405V30.5936H16.3108V17.6751Z" fill="white"/>
<path d="M14.3395 15.9864C15.6155 15.9864 16.6499 14.9195 16.6499 13.6034C16.6499 12.2874 15.6155 11.2205 14.3395 11.2205C13.0635 11.2205 12.0291 12.2874 12.0291 13.6034C12.0291 14.9195 13.0635 15.9864 14.3395 15.9864Z" fill="white"/>
<path d="M22.5636 23.82C22.5636 22 23.3796 20.9211 24.9474 20.9211C26.5152 20.9211 27.0745 21.9625 27.0745 23.82V30.603H30.9619V22.4222C30.9619 18.9603 29.0457 17.2904 26.3777 17.2904C25.6169 17.28 24.8664 17.4715 24.1995 17.8464C23.5327 18.2213 22.9722 18.7667 22.5728 19.4294V17.6751H18.8137V30.603H22.5636V23.82Z" fill="white"/>
</svg>
