<svg width="47" height="47" viewBox="0 0 47 47" fill="none" xmlns="http://www.w3.org/2000/svg">
<g clip-path="url(#clip0_11_14)">
<path d="M23.45 46.68C17.289 46.68 11.3804 44.2325 7.02388 39.8761C2.66741 35.5196 0.219971 29.611 0.219971 23.45V23.45C0.219971 17.289 2.66741 11.3804 7.02388 7.02388C11.3804 2.66741 17.289 0.219971 23.45 0.219971V0.219971C29.611 0.219971 35.5196 2.66741 39.8761 7.02388C44.2325 11.3804 46.68 17.289 46.68 23.45V23.45C46.68 29.611 44.2325 35.5196 39.8761 39.8761C35.5196 44.2325 29.611 46.68 23.45 46.68V46.68Z" stroke="#141613" stroke-width="0.43" stroke-miterlimit="10"/>
<path d="M17.7898 18.84H13.5298V32.61H17.7898V18.84Z" fill="#141613"/>
<path d="M15.6399 17.04C17.0316 17.04 18.1599 15.9028 18.1599 14.5C18.1599 13.0972 17.0316 11.96 15.6399 11.96C14.2481 11.96 13.1199 13.0972 13.1199 14.5C13.1199 15.9028 14.2481 17.04 15.6399 17.04Z" fill="#141613"/>
<path d="M24.6098 25.3899C24.6098 23.4499 25.4998 22.2999 27.2098 22.2999C28.9198 22.2999 29.5298 23.4099 29.5298 25.3899V32.6199H33.7698V23.8999C33.7698 20.2099 31.6798 18.4299 28.7698 18.4299C27.94 18.4188 27.1214 18.623 26.3941 19.0226C25.6667 19.4222 25.0554 20.0036 24.6198 20.7099V18.8399H20.5198V32.6199H24.6098V25.3899Z" fill="#141613"/>
</g>
<defs>
<clipPath id="clip0_11_14">
<rect width="46.9" height="46.9" fill="white"/>
</clipPath>
</defs>
</svg>
