<svg width="43" height="44" viewBox="0 0 43 44" fill="none" xmlns="http://www.w3.org/2000/svg">
<path d="M21.5 43.7936C15.8513 43.7936 10.434 41.4975 6.43979 37.4104C2.44558 33.3233 0.20166 27.78 0.20166 22C0.20166 16.22 2.44558 10.6767 6.43979 6.5896C10.434 2.5025 15.8513 0.206398 21.5 0.206398C27.1486 0.206398 32.5659 2.5025 36.5601 6.5896C40.5543 10.6767 42.7982 16.22 42.7982 22C42.7982 27.78 40.5543 33.3233 36.5601 37.4104C32.5659 41.4975 27.1486 43.7936 21.5 43.7936Z" fill="#EF463F"/>
<path d="M32.0525 12.8295L28.0449 29.731C27.8564 30.527 26.9841 30.9371 26.269 30.5591L21.2004 27.8816L18.8037 31.8939C18.1516 32.9875 16.5014 32.5131 16.5014 31.2345V26.7638C16.5014 26.4181 16.6428 26.0884 16.8865 25.8472L26.7641 16.1984C26.7562 16.0778 26.6305 15.9733 26.5049 16.0616L14.718 24.4561L10.7576 22.3655C9.83045 21.875 9.86974 20.5 10.8283 20.0739L30.3555 11.3661C31.2905 10.9479 32.2961 11.8084 32.0525 12.8295Z" fill="white"/>
</svg>
