<svg width="47" height="47" viewBox="0 0 47 47" fill="none" xmlns="http://www.w3.org/2000/svg">
<g clip-path="url(#clip0_13_23)">
<path d="M23.45 46.68C17.289 46.68 11.3804 44.2325 7.02388 39.8761C2.66741 35.5196 0.219971 29.611 0.219971 23.45V23.45C0.219971 17.289 2.66741 11.3804 7.02388 7.02388C11.3804 2.66741 17.289 0.219971 23.45 0.219971V0.219971C29.611 0.219971 35.5196 2.66741 39.8761 7.02388C44.2325 11.3804 46.68 17.289 46.68 23.45V23.45C46.68 29.611 44.2325 35.5196 39.8761 39.8761C35.5196 44.2325 29.611 46.68 23.45 46.68V46.68Z" stroke="#141613" stroke-width="0.43" stroke-miterlimit="10"/>
<path d="M33.615 15.4412L29.8541 30.9418C29.6772 31.6718 28.8586 32.0479 28.1875 31.7013L23.4309 29.2457L21.1818 32.9254C20.5698 33.9283 19.0213 33.4933 19.0213 32.3206V28.2205C19.0213 27.9035 19.1539 27.6011 19.3826 27.3799L28.6521 18.5309C28.6447 18.4203 28.5267 18.3245 28.4089 18.4054L17.3476 26.1041L13.631 24.1868C12.7609 23.737 12.7978 22.4759 13.6973 22.0852L32.0224 14.0991C32.8999 13.7156 33.8436 14.5048 33.615 15.4412Z" fill="#141613"/>
</g>
<defs>
<clipPath id="clip0_13_23">
<rect width="46.9" height="46.9" fill="white"/>
</clipPath>
</defs>
</svg>
